<svg width="140" height="24" viewBox="0 0 140 24" fill="none" xmlns="http://www.w3.org/2000/svg">
<g clip-path="url(#clip0_1485_680)">
<path d="M122.377 1.40265L122.418 2.03187H122.348C122.322 1.66531 122.127 1.48058 121.76 1.48058H121.336V3.63091C121.336 3.85027 121.446 3.95707 121.67 3.95707V4.02923H120.541V3.95707C120.762 3.95707 120.876 3.84739 120.876 3.63091V1.48058H120.451C120.085 1.48058 119.89 1.66531 119.863 2.03765L119.794 2.02899L119.834 1.40265H122.383H122.377Z" fill="#EA5514"/>
<path d="M123.829 1.40277L124.778 3.66856C124.859 3.85328 124.984 3.94853 125.159 3.95142V4.03224H124.071V3.95142C124.277 3.95142 124.341 3.85905 124.263 3.66856L124.056 3.15767H123.119L122.921 3.66856C122.846 3.85905 122.91 3.95142 123.116 3.95142V4.03224H122.444V3.95142C122.631 3.9543 122.761 3.86194 122.837 3.66856L123.707 1.40277H123.832H123.829ZM123.151 3.08263H124.027C123.995 3.0047 123.844 2.63813 123.576 1.97715C123.311 2.66411 123.169 3.03356 123.151 3.08263Z" fill="#EA5514"/>
<path d="M126.678 1.40277V1.47493C126.456 1.47493 126.349 1.58461 126.349 1.80686V3.62815C126.349 3.84751 126.459 3.96008 126.678 3.96008V4.03224H125.552V3.96008C125.773 3.96008 125.88 3.8504 125.88 3.62815V1.80686C125.88 1.5875 125.77 1.47493 125.552 1.47493V1.40277H126.678Z" fill="#EA5514"/>
<path d="M128.254 1.40277V1.47493C128.013 1.47493 127.937 1.58461 128.025 1.80686L128.685 3.45497L129.232 1.80109C129.302 1.5875 129.197 1.4807 128.912 1.47782V1.40566H130.009V1.47782C129.738 1.47782 129.645 1.5875 129.732 1.80975L130.393 3.45785L130.951 1.80975C131.03 1.59038 130.966 1.47782 130.762 1.47782V1.40566H131.432V1.47782C131.245 1.47782 131.114 1.5875 131.042 1.80975L130.3 4.03512H130.143L129.287 1.90211L128.592 4.03512H128.435L127.527 1.80975C127.437 1.59038 127.312 1.47782 127.155 1.47782V1.40566H128.252L128.254 1.40277Z" fill="#EA5514"/>
<path d="M132.482 1.40277L133.43 3.66856C133.512 3.85328 133.637 3.94853 133.812 3.95142V4.03224H132.723V3.95142C132.93 3.95142 132.994 3.85905 132.915 3.66856L132.709 3.15767H131.772L131.574 3.66856C131.499 3.85905 131.563 3.95142 131.769 3.95142V4.03224H131.097V3.95142C131.283 3.9543 131.414 3.86194 131.49 3.66856L132.36 1.40277H132.485H132.482ZM131.804 3.08263H132.68C132.648 3.0047 132.496 2.63813 132.229 1.97715C131.964 2.66411 131.821 3.03356 131.804 3.08263Z" fill="#EA5514"/>
<path d="M135.132 1.40279C135.132 1.4432 135.162 1.50092 135.223 1.57597C135.464 1.93388 135.869 2.48228 136.43 3.22408V1.80688C136.43 1.58752 136.32 1.47495 136.095 1.47495V1.40279H136.84V1.47783C136.622 1.47783 136.512 1.58463 136.512 1.80399V4.02937H136.372L134.617 1.68854V3.62816C134.617 3.8533 134.725 3.96298 134.946 3.96298V4.02937H134.204V3.96009C134.42 3.96009 134.53 3.85041 134.53 3.62816V1.80399C134.53 1.58463 134.42 1.47206 134.204 1.47206V1.3999H135.132V1.40279Z" fill="#EA5514"/>
<path d="M121.278 6.12198C121.446 6.19703 121.534 6.17971 121.537 6.07003H121.606L121.662 6.80316L121.595 6.80893C121.545 6.604 121.473 6.44525 121.379 6.33269C121.254 6.18548 121.091 6.11621 120.891 6.12198C120.748 6.12198 120.632 6.16528 120.539 6.24032C120.483 6.28362 120.446 6.34135 120.428 6.41639C120.405 6.48855 120.405 6.56071 120.422 6.63864C120.437 6.70503 120.469 6.76275 120.521 6.81182C120.585 6.87821 120.739 6.95325 120.984 7.03984C121.219 7.12643 121.382 7.19571 121.47 7.24477C121.598 7.31982 121.697 7.4093 121.761 7.5132C121.828 7.62289 121.857 7.75854 121.848 7.92307C121.836 8.15109 121.743 8.34736 121.572 8.50611C121.391 8.67063 121.158 8.74568 120.867 8.73124C120.699 8.72547 120.53 8.67352 120.358 8.57538C120.291 8.53786 120.239 8.51188 120.201 8.50034C120.16 8.48879 120.126 8.49745 120.094 8.5292C120.062 8.56095 120.041 8.61579 120.038 8.69372H119.971V7.88843H120.038C120.091 8.10779 120.181 8.27809 120.303 8.4022C120.448 8.54363 120.635 8.61868 120.862 8.62733C121.042 8.63599 121.187 8.59847 121.301 8.51765C121.374 8.4657 121.423 8.4022 121.449 8.32138C121.475 8.255 121.487 8.17418 121.478 8.08181C121.47 8.00966 121.443 7.94038 121.397 7.87688C121.356 7.82493 121.289 7.77298 121.196 7.72102C121.106 7.66907 120.995 7.62 120.867 7.57382C120.739 7.52475 120.643 7.48434 120.579 7.4497C120.21 7.26498 120.024 7.0283 120.021 6.74543C120.021 6.54339 120.094 6.37598 120.236 6.24032C120.402 6.09889 120.614 6.02673 120.873 6.02673C121.007 6.02673 121.144 6.0556 121.281 6.11621L121.278 6.12198Z" fill="#EA5514"/>
<path d="M124.929 6.07001L124.97 6.69923H124.9C124.874 6.33266 124.679 6.14794 124.312 6.14794H123.887V8.29827C123.887 8.51763 123.998 8.62443 124.222 8.62443V8.69659H123.093V8.62443C123.314 8.62443 123.428 8.51475 123.428 8.29827V6.14794H123.003C122.636 6.14794 122.441 6.33266 122.415 6.705L122.345 6.69635L122.386 6.07001H124.935H124.929Z" fill="#EA5514"/>
<path d="M126.544 6.07003V6.14218C126.325 6.14218 126.288 6.25764 126.43 6.477L126.922 7.24477L127.469 6.47411C127.626 6.25475 127.603 6.14218 127.399 6.14218V6.07003H128.065V6.14218C127.885 6.14507 127.719 6.25764 127.565 6.47989L127.041 7.24188C127.024 7.26209 127.009 7.28806 127 7.3227C126.995 7.34002 126.989 7.39197 126.989 7.47856V8.29829C126.989 8.51765 127.102 8.62444 127.326 8.62444V8.6966H126.197V8.62444C126.419 8.62444 126.532 8.51765 126.532 8.29829V7.84224C126.532 7.68061 126.518 7.56804 126.5 7.50454C126.491 7.4699 126.448 7.38909 126.372 7.26497L125.883 6.47123C125.749 6.25186 125.607 6.1393 125.456 6.1393V6.06714H126.55L126.544 6.07003Z" fill="#EA5514"/>
<path d="M129.674 6.07001V6.14217C129.453 6.14217 129.346 6.25185 129.346 6.4741V8.18859C129.346 8.48011 129.543 8.62731 129.942 8.62731C130.09 8.62731 130.221 8.60711 130.335 8.56959C130.448 8.53206 130.55 8.4599 130.643 8.35311C130.733 8.24632 130.792 8.11066 130.815 7.94325H130.885L130.838 8.69947H128.548V8.63309C128.769 8.63309 128.877 8.5234 128.877 8.30116V6.4741C128.877 6.25473 128.767 6.14217 128.548 6.14217V6.07001H129.674Z" fill="#EA5514"/>
<path d="M133.489 6.07001L133.529 6.69635L133.459 6.70789C133.433 6.33555 133.224 6.15082 132.828 6.15082H132.165V7.24475H132.502C132.761 7.24475 132.889 7.11198 132.889 6.85221H132.959V7.72966H132.889C132.889 7.46123 132.761 7.32846 132.502 7.32846H132.165V8.19147C132.165 8.48588 132.363 8.63309 132.761 8.63309C133.32 8.63309 133.611 8.40506 133.634 7.94902L133.701 7.95479L133.654 8.70524H131.368V8.63309C131.589 8.62731 131.699 8.52052 131.699 8.30693V6.47987C131.699 6.25473 131.589 6.14505 131.368 6.14794V6.07578H133.491L133.489 6.07001Z" fill="#EA5514"/>
<path d="M121.225 10.4717C121.441 10.4717 121.624 10.5439 121.775 10.6911C121.926 10.8383 122.002 11.0143 122.002 11.2221C122.002 11.43 121.926 11.6031 121.775 11.7503C121.624 11.8976 121.441 11.9697 121.225 11.9697H120.582V12.6971C120.582 12.9164 120.69 13.029 120.911 13.029V13.1012H119.788V13.029C120.009 13.029 120.12 12.9193 120.117 12.6971V10.8729C120.117 10.6478 120.006 10.5352 119.788 10.541V10.4688H121.225V10.4717ZM120.582 11.8889H120.888C121.059 11.8889 121.208 11.8254 121.333 11.6955C121.458 11.5656 121.519 11.4069 121.519 11.2193C121.519 11.0316 121.458 10.8758 121.333 10.7459C121.211 10.6189 121.062 10.5554 120.888 10.5554H120.582V11.8889Z" fill="#EA5514"/>
<path d="M123.268 10.4717L124.216 12.7375C124.298 12.9222 124.423 13.0174 124.597 13.0203V13.1011H123.509V13.0203C123.716 13.0203 123.78 12.928 123.701 12.7375L123.495 12.2266H122.558L122.36 12.7375C122.284 12.928 122.348 13.0203 122.555 13.0203V13.1011H121.883V13.0203C122.069 13.0232 122.2 12.9309 122.276 12.7375L123.146 10.4717H123.271H123.268ZM122.59 12.1515H123.466C123.434 12.0736 123.282 11.707 123.015 11.0461C122.75 11.733 122.607 12.1025 122.59 12.1515Z" fill="#EA5514"/>
<path d="M126.264 10.5237C126.433 10.5987 126.52 10.5814 126.523 10.4717H126.593L126.648 11.2048L126.581 11.2106C126.532 11.0057 126.459 10.8469 126.366 10.7344C126.241 10.5872 126.078 10.5179 125.877 10.5237C125.735 10.5237 125.616 10.5669 125.525 10.642C125.47 10.6853 125.432 10.743 125.415 10.8181C125.392 10.8902 125.392 10.9624 125.409 11.0403C125.424 11.1067 125.456 11.1644 125.508 11.2135C125.572 11.2799 125.726 11.3549 125.971 11.4415C126.206 11.5281 126.369 11.5974 126.456 11.6464C126.584 11.7215 126.683 11.811 126.747 11.9149C126.814 12.0246 126.843 12.1602 126.835 12.3247C126.823 12.5528 126.73 12.749 126.558 12.9078C126.378 13.0723 126.142 13.1473 125.854 13.1329C125.685 13.1271 125.517 13.0752 125.345 12.9771C125.278 12.9395 125.226 12.9136 125.188 12.902C125.147 12.8905 125.112 12.8991 125.08 12.9309C125.048 12.9626 125.028 13.0175 125.025 13.0954H124.958V12.2901H125.025C125.077 12.5095 125.167 12.6798 125.29 12.8039C125.435 12.9453 125.621 13.0203 125.848 13.029C126.029 13.0377 126.174 13.0001 126.288 12.9193C126.36 12.8674 126.41 12.8039 126.436 12.7231C126.462 12.6567 126.474 12.5759 126.465 12.4835C126.456 12.4113 126.43 12.3421 126.384 12.2786C126.343 12.2266 126.276 12.1746 126.183 12.1227C126.093 12.0707 125.982 12.0217 125.854 11.9755C125.726 11.9264 125.63 11.886 125.566 11.8514C125.197 11.6667 125.01 11.43 125.007 11.1471C125.007 10.9451 125.08 10.7777 125.223 10.642C125.389 10.5006 125.601 10.4284 125.86 10.4284C125.994 10.4284 126.131 10.4573 126.267 10.5179L126.264 10.5237Z" fill="#EA5514"/>
<path d="M129.916 10.4717L129.956 11.1009H129.887C129.86 10.7343 129.666 10.5496 129.299 10.5496H128.874V12.6999C128.874 12.9193 128.985 13.0261 129.209 13.0261V13.0983H128.08V13.0261C128.301 13.0261 128.414 12.9164 128.414 12.6999V10.5496H127.99C127.623 10.5496 127.428 10.7343 127.402 11.1067L127.332 11.098L127.373 10.4717H129.922H129.916Z" fill="#EA5514"/>
<path d="M131.778 10.4717C131.999 10.4717 132.188 10.5381 132.345 10.6709C132.502 10.8036 132.581 10.9624 132.581 11.15C132.581 11.3174 132.517 11.4646 132.392 11.5887C132.267 11.7128 132.109 11.7879 131.915 11.8167C132.063 11.8254 132.179 11.9091 132.258 12.065L132.508 12.5614C132.662 12.8731 132.846 13.029 133.052 13.029V13.1012H132.147C132.153 12.9886 132.107 12.8298 132.013 12.6249L131.784 12.1111C131.743 12.0274 131.685 11.9582 131.603 11.9062C131.53 11.8571 131.432 11.8312 131.309 11.8312H131.237V12.7028C131.237 12.9222 131.344 13.029 131.565 13.029V13.1012H130.439V13.029C130.661 13.029 130.768 12.9222 130.768 12.7028V10.8758C130.768 10.6564 130.661 10.5439 130.439 10.5439V10.4688H131.781L131.778 10.4717ZM131.234 11.7503H131.405C131.609 11.7503 131.775 11.6926 131.906 11.5801C132.034 11.4675 132.098 11.3232 132.098 11.1558C132.098 10.9884 132.034 10.8411 131.906 10.7286C131.778 10.616 131.612 10.5583 131.405 10.5583H131.234V11.7532V11.7503Z" fill="#EA5514"/>
<path d="M134.658 10.4717V10.5438C134.437 10.5438 134.329 10.6535 134.329 10.8758V12.6971C134.329 12.9164 134.44 13.029 134.658 13.029V13.1011H133.532V13.029C133.753 13.029 133.861 12.9193 133.861 12.6971V10.8758C133.861 10.6564 133.75 10.5438 133.532 10.5438V10.4717H134.658Z" fill="#EA5514"/>
<path d="M137.265 10.4717L137.306 11.098L137.236 11.1096C137.21 10.7372 137 10.5525 136.605 10.5525H135.941V11.6464H136.279C136.538 11.6464 136.666 11.5165 136.666 11.2539H136.736V12.1313H136.666C136.666 11.8629 136.538 11.7301 136.279 11.7301H135.941V12.5931C135.941 12.8876 136.139 13.0348 136.538 13.0348C137.096 13.0348 137.387 12.8067 137.411 12.3507L137.477 12.3565L137.431 13.1069H135.144V13.0348C135.365 13.029 135.476 12.9222 135.476 12.7086V10.8815C135.476 10.6564 135.365 10.5467 135.144 10.5496V10.4775H137.268L137.265 10.4717Z" fill="#EA5514"/>
<path d="M139.43 10.5237C139.598 10.5987 139.686 10.5814 139.689 10.4717H139.758L139.814 11.2048L139.747 11.2106C139.697 11.0057 139.625 10.8469 139.531 10.7344C139.406 10.5872 139.243 10.5179 139.043 10.5237C138.9 10.5237 138.781 10.5669 138.691 10.642C138.635 10.6853 138.598 10.743 138.58 10.8181C138.557 10.8902 138.557 10.9624 138.574 11.0403C138.589 11.1067 138.621 11.1644 138.673 11.2135C138.737 11.2799 138.891 11.3549 139.136 11.4415C139.371 11.5281 139.534 11.5974 139.622 11.6464C139.75 11.7215 139.849 11.811 139.913 11.9149C139.98 12.0246 140.009 12.1602 140 12.3247C139.988 12.5528 139.895 12.749 139.723 12.9078C139.543 13.0723 139.31 13.1473 139.019 13.1329C138.851 13.1271 138.682 13.0752 138.51 12.9771C138.443 12.9395 138.391 12.9136 138.353 12.902C138.312 12.8905 138.277 12.8991 138.245 12.9309C138.213 12.9626 138.193 13.0175 138.19 13.0954H138.123V12.2901H138.19C138.243 12.5095 138.333 12.6798 138.455 12.8039C138.6 12.9453 138.787 13.0203 139.014 13.029C139.194 13.0377 139.339 13.0001 139.453 12.9193C139.526 12.8674 139.575 12.8039 139.601 12.7231C139.627 12.6567 139.639 12.5759 139.63 12.4835C139.622 12.4113 139.595 12.3421 139.549 12.2786C139.508 12.2266 139.441 12.1746 139.348 12.1227C139.258 12.0707 139.147 12.0217 139.019 11.9755C138.891 11.9264 138.795 11.886 138.731 11.8514C138.362 11.6667 138.176 11.43 138.173 11.1471C138.173 10.9451 138.245 10.7777 138.388 10.642C138.554 10.5006 138.766 10.4284 139.025 10.4284C139.159 10.4284 139.296 10.4573 139.433 10.5179L139.43 10.5237Z" fill="#EA5514"/>
<path d="M132.921 19.6647C132.901 17.4855 130.754 16.2069 128.845 15.7335C126.459 15.1447 123.489 15.4362 121.554 17.067C120.853 17.6558 120.326 18.4524 120.253 19.379C120.184 20.242 120.454 21.0559 121.013 21.7227C121.737 22.5857 122.788 23.137 123.855 23.466C125.144 23.8643 126.532 23.9567 127.868 23.7806C129.849 23.518 132.476 22.4587 132.872 20.242C132.907 20.0515 132.918 19.8581 132.921 19.6647C132.921 19.5262 132.895 19.5233 132.895 19.6647C132.886 20.6287 132.264 21.486 131.539 22.0748C130.704 22.7531 129.671 23.1716 128.627 23.3996C126.398 23.8903 123.762 23.619 121.874 22.2624C121.138 21.7313 120.498 20.9867 120.317 20.0803C120.125 19.1105 120.649 18.1667 121.333 17.5115C122.983 15.9327 125.592 15.5084 127.789 15.7826C129.028 15.9355 130.274 16.331 131.292 17.0641C132.13 17.6645 132.883 18.5881 132.895 19.6647C132.895 19.8032 132.924 19.8061 132.921 19.6647Z" fill="#F8B73D"/>
<path d="M121.368 18.6141L121.635 18.6487C121.635 18.9807 121.595 19.2751 121.516 19.532C121.51 19.5493 121.505 19.5666 121.499 19.5782L121.225 19.4771C121.301 19.2693 121.35 18.9807 121.368 18.6141ZM124.039 19.6445H124.472V20.0457H122.415V19.6445H122.828V18.9576H122.523V18.6747C122.5 18.7296 122.468 18.8162 122.424 18.9258C122.357 19.1019 122.308 19.2202 122.278 19.2895L122.113 19.2202C122.107 19.4512 122.098 19.6417 122.084 19.7946C122.209 19.9389 122.36 20.141 122.543 20.395L122.273 20.675C122.223 20.5797 122.13 20.4296 121.999 20.2276C121.909 20.5768 121.752 20.8712 121.528 21.1108C121.475 21.0213 121.397 20.9347 121.292 20.8481C121.278 20.8337 121.266 20.8251 121.254 20.8193C121.534 20.5191 121.691 20.0919 121.729 19.5377C121.737 19.4136 121.743 19.2722 121.743 19.1077V17.93H122.116V19.0528C122.18 18.8479 122.226 18.6574 122.261 18.4785L122.526 18.5679V18.5622H122.831V17.9214H123.23V18.5622H123.637V17.9214H124.042V18.5622H124.431V18.9547H124.042V19.6417L124.039 19.6445ZM122.921 20.1929L123.32 20.3084C123.172 20.5855 122.983 20.8279 122.758 21.0358C122.726 21.0617 122.697 21.0877 122.671 21.1108C122.575 21.0156 122.468 20.9318 122.345 20.8539C122.34 20.8539 122.337 20.8481 122.337 20.8481C122.555 20.7009 122.738 20.5047 122.884 20.2622C122.898 20.2391 122.913 20.216 122.924 20.1958L122.921 20.1929ZM123.23 18.9605V19.6474H123.637V18.9605H123.23ZM123.538 20.3661L123.882 20.1785C124.108 20.3979 124.298 20.623 124.443 20.8539C124.452 20.8683 124.461 20.8799 124.466 20.8914L124.108 21.1137C124.004 20.9174 123.835 20.6923 123.599 20.4354C123.576 20.4094 123.556 20.3892 123.538 20.369V20.3661Z" fill="#F8B73D"/>
<path d="M126.163 19.327L125.971 19.2375C125.965 19.454 125.953 19.6474 125.933 19.8148C125.971 19.8552 126.134 20.0457 126.424 20.3892C126.439 20.4036 126.448 20.4152 126.454 20.4238L126.166 20.7067C126.096 20.5883 125.988 20.4325 125.84 20.2362C125.732 20.5884 125.557 20.8741 125.322 21.0935C125.261 20.9982 125.179 20.9087 125.077 20.8279C125.063 20.8164 125.051 20.8077 125.04 20.8019C125.345 20.5104 125.52 20.0948 125.569 19.5579C125.581 19.428 125.587 19.2751 125.587 19.1019V17.9502H125.971V19.0672C126.058 18.8652 126.125 18.6718 126.171 18.49L126.538 18.6343C126.512 18.6805 126.477 18.7526 126.427 18.8508C126.305 19.0903 126.218 19.252 126.166 19.3357L126.163 19.327ZM125.197 18.617L125.491 18.6545C125.496 19.0586 125.441 19.3703 125.325 19.5954L125.04 19.4684C125.136 19.2895 125.188 19.0239 125.197 18.6747V18.617ZM127.824 19.1683H128.31V19.5204H126.334V19.1683H126.782C126.765 19.0095 126.718 18.8334 126.646 18.6401L126.931 18.5621H126.416V18.2158H127.12V17.8954H127.524V18.2158H128.246V18.5621H127.76L128.042 18.6227C128.019 18.6776 127.987 18.7642 127.943 18.8739C127.888 19.0153 127.85 19.1134 127.824 19.1654V19.1683ZM126.541 21.1079V19.734H128.147V21.0963H127.74V20.9463H126.925V21.1108H126.538L126.541 21.1079ZM127.644 18.5621H126.989C127.065 18.7353 127.117 18.9114 127.14 19.0961L126.902 19.1654H127.705L127.466 19.1019C127.542 18.92 127.597 18.7411 127.638 18.5621H127.644ZM127.742 20.0804H126.928V20.5884H127.742V20.0804Z" fill="#F8B73D"/>
<path d="M132.112 18.8623H130.946V19.275H131.949C131.949 19.275 131.949 19.3357 131.944 19.4453C131.912 20.1727 131.868 20.623 131.816 20.7962C131.795 20.8568 131.772 20.9029 131.749 20.9347C131.682 21.0184 131.589 21.0675 131.469 21.0848C131.464 21.0848 131.455 21.0877 131.449 21.0877C131.35 21.0992 131.19 21.1021 130.975 21.0934C130.96 20.9405 130.917 20.8077 130.838 20.6894C130.954 20.698 131.094 20.7038 131.254 20.7038C131.315 20.7038 131.359 20.6865 131.385 20.6605C131.449 20.5941 131.493 20.2564 131.522 19.6532H130.931C130.87 20.2535 130.599 20.7182 130.117 21.0473C130.082 21.0704 130.047 21.0934 130.012 21.1136C129.956 21.0386 129.855 20.9405 129.7 20.825C130.201 20.5191 130.474 20.0919 130.521 19.5521C130.527 19.4829 130.533 19.4107 130.533 19.3357V18.8594H130.041V19.1047H129.709V19.9158C129.75 19.9014 129.808 19.8812 129.887 19.8523C129.968 19.8235 130.029 19.8004 130.067 19.7888L130.149 20.1756C129.724 20.3401 129.334 20.4844 128.982 20.6172L128.863 20.1958C128.927 20.1785 129.075 20.1294 129.308 20.0544V19.1076H128.929V18.7209H129.308V17.9618H129.712V18.7209H129.98V18.4726H130.826V17.8983H131.237V18.4726H132.115V18.8623H132.112Z" fill="#F8B73D"/>
<path d="M33.5286 13.1906C33.3337 13.1906 33.1067 13.1906 32.8682 13.1704C32.8362 13.1675 32.8042 13.1647 32.7663 13.1618C32.1146 13.13 31.5735 13.0377 31.1283 12.9135C30.8606 12.8385 30.6279 12.7548 30.4271 12.6682C30.2613 12.5961 30.078 12.7144 30.078 12.8933V21.9132C30.078 22.9523 31.0032 23.8009 32.1408 23.8009H39.2224C40.3571 23.8009 41.2823 22.9552 41.2823 21.9132V13.436C41.2823 13.3003 41.1717 13.1906 41.035 13.1906H33.5286ZM38.0557 21.5437H33.0922C32.9555 21.5437 32.8449 21.4341 32.8449 21.2984V16.0077C32.8449 15.8721 32.9555 15.7624 33.0922 15.7624H38.0557C38.1925 15.7624 38.303 15.8721 38.303 16.0077V21.2984C38.303 21.4341 38.1925 21.5437 38.0557 21.5437Z" fill="#EA5514"/>
<path d="M37.6425 1.02754C37.1159 1.02754 36.6184 0.96404 36.1674 0.83704C35.9638 0.779313 35.7863 0.7187 35.6263 0.652314C35.4633 0.585928 35.283 0.704268 35.283 0.880336V8.14816C35.283 9.06891 36.1034 9.81647 37.1072 9.81647H49.3676C50.3743 9.81647 51.1948 9.06891 51.1948 8.14816V1.27577C51.1948 1.14011 51.0842 1.03043 50.9475 1.03043H37.6425V1.02754ZM48.2708 7.59687H38.0382C37.9015 7.59687 37.7909 7.48719 37.7909 7.35153V3.52135C37.7909 3.38569 37.9015 3.27601 38.0382 3.27601H48.2708C48.4075 3.27601 48.5181 3.38569 48.5181 3.52135V7.35153C48.5181 7.48719 48.4075 7.59687 48.2708 7.59687Z" fill="#EA5514"/>
<path d="M47.7966 13.1906C47.7966 13.1906 47.785 13.1906 47.7792 13.1906L47.4126 13.1646C46.3652 13.1156 45.6029 12.902 45.0734 12.6711C44.9075 12.5989 44.7242 12.7173 44.7242 12.8962V21.9161C44.7242 22.9551 45.6494 23.8037 46.787 23.8037H54.2731C55.4107 23.8037 56.3359 22.958 56.3359 21.9161V13.4388C56.3359 13.3032 56.2253 13.1935 56.0886 13.1935H47.7966V13.1906ZM53.0802 21.5437H47.7995C47.6628 21.5437 47.5522 21.434 47.5522 21.2984V16.0077C47.5522 15.872 47.6628 15.7624 47.7995 15.7624H53.0802C53.2169 15.7624 53.3275 15.872 53.3275 16.0077V21.2984C53.3275 21.434 53.2169 21.5437 53.0802 21.5437Z" fill="#EA5514"/>
<path d="M97.1845 17.4133V15.6729C97.1845 15.5286 97.3038 15.4102 97.4493 15.4102H100.242C101.077 15.4102 101.755 14.8272 101.755 14.1143V6.91281C101.755 6.76849 101.636 6.65015 101.491 6.65015H97.4813C97.3358 6.65015 97.2165 6.53181 97.2165 6.38749V4.69898C97.2165 4.55466 97.3358 4.43632 97.4813 4.43632H101.668C101.813 4.43632 101.933 4.31798 101.933 4.17366V2.73915C101.933 2.59483 101.813 2.47649 101.668 2.47649H97.4813C97.3358 2.47649 97.2165 2.35815 97.2165 2.21383V0.262658C97.2165 0.11834 97.0972 0 96.9518 0H94.9035C94.758 0 94.6387 0.11834 94.6387 0.262658V2.21672C94.6387 2.36103 94.5195 2.47937 94.374 2.47937H92.4363C92.3926 2.47649 92.349 2.47072 92.2966 2.47072C91.3394 2.42742 90.6353 2.24558 90.1349 2.04642C89.9603 1.97715 89.7712 2.10126 89.7712 2.28599V3.35394C89.7712 3.95141 90.2629 4.43921 90.8652 4.43921H94.374C94.5195 4.43921 94.6387 4.55755 94.6387 4.70186V6.39038C94.6387 6.5347 94.5195 6.65304 94.374 6.65304H90.4579C90.3124 6.65304 90.1931 6.77138 90.1931 6.91569V14.1171C90.1931 14.8301 90.871 15.4131 91.706 15.4131H94.374C94.5195 15.4131 94.6387 15.5314 94.6387 15.6758V17.4162C94.6387 17.5606 94.5195 17.6789 94.374 17.6789H91.0776C91.063 17.676 91.0485 17.6731 91.0339 17.6731C90.5044 17.5923 90.0825 17.4682 89.7509 17.3354C89.5763 17.2661 89.3843 17.3903 89.3843 17.5779V19.1769C89.3843 19.4453 89.6519 19.6618 89.9807 19.6618H94.374C94.5195 19.6618 94.6387 19.7802 94.6387 19.9245V23.5959C94.6387 23.7402 94.758 23.8586 94.9035 23.8586H96.9198C97.0652 23.8586 97.1845 23.7402 97.1845 23.5959V19.9245C97.1845 19.7802 97.3038 19.6618 97.4493 19.6618H101.933C102.262 19.6618 102.526 19.4453 102.526 19.1769V17.9416C102.526 17.7972 102.407 17.6789 102.262 17.6789H97.4464C97.3009 17.6789 97.1816 17.5606 97.1816 17.4162L97.1845 17.4133ZM95.0286 9.98966C95.0286 10.134 94.9093 10.2523 94.7639 10.2523H94.5893C94.3798 10.2523 94.1732 10.2292 93.9725 10.183C93.8037 10.1455 93.6437 10.2667 93.6437 10.437V11.7532C93.6437 11.7532 93.6583 11.759 93.6699 11.759H94.761C94.9064 11.759 95.0257 11.7821 95.0257 11.9293V13.7217C95.0257 13.866 94.9064 13.9844 94.761 13.9844H92.4043C92.2588 13.9844 92.1395 13.866 92.1395 13.7217V8.31557C92.1395 8.17126 92.2588 8.05292 92.4043 8.05292H94.761C94.9064 8.05292 95.0257 8.17126 95.0257 8.31557V9.98966H95.0286ZM96.8296 13.7217V11.9293C96.8296 11.785 96.9489 11.759 97.0943 11.759H98.1854C98.1854 11.759 98.2057 11.7561 98.2116 11.7532V10.437C98.2116 10.2667 98.0515 10.1455 97.8828 10.183C97.6849 10.2292 97.4784 10.2523 97.2689 10.2523H97.0972C96.9518 10.2523 96.8325 10.134 96.8325 9.98966V8.31557C96.8325 8.17126 96.9518 8.05292 97.0972 8.05292H99.4539C99.5994 8.05292 99.7187 8.17126 99.7187 8.31557V13.7217C99.7187 13.866 99.5994 13.9844 99.4539 13.9844H97.0972C96.9518 13.9844 96.8325 13.866 96.8325 13.7217H96.8296Z" fill="#EA5514"/>
<path d="M116.532 10.7372V12.3276C116.532 12.4719 116.413 12.5902 116.268 12.5902H111.391C111.246 12.5902 111.127 12.7086 111.127 12.8529V23.619C111.127 23.7633 111.007 23.8816 110.862 23.8816H108.665C108.52 23.8816 108.4 23.7633 108.4 23.619V12.8529C108.4 12.7086 108.281 12.5902 108.136 12.5902H104.353C103.606 12.5902 102.998 11.987 102.998 11.2452V10.2783C102.998 10.0907 103.187 9.96944 103.361 10.0387C103.862 10.2408 104.566 10.4197 105.523 10.463C105.581 10.463 105.631 10.4688 105.68 10.4717C105.686 10.4717 105.692 10.4717 105.698 10.4717H108.136C108.281 10.4717 108.4 10.3562 108.4 10.2119V3.88213C108.4 3.73781 108.281 3.61947 108.136 3.61947H104.982C104.234 3.61947 103.626 3.01622 103.626 2.27443V1.33348C103.626 1.14587 103.818 1.02176 103.993 1.09103C104.185 1.16607 104.406 1.24112 104.662 1.30462C105.116 1.42007 105.619 1.4778 106.151 1.4778H115.668C115.814 1.4778 115.933 1.59614 115.933 1.74046V3.35681C115.933 3.50113 115.814 3.61947 115.668 3.61947H111.391C111.246 3.61947 111.127 3.73781 111.127 3.88213V10.2119C111.127 10.3562 111.246 10.4746 111.391 10.4746H116.268C116.413 10.4746 116.532 10.5929 116.532 10.7372Z" fill="#EA5514"/>
<path d="M26.2141 1.8848C26.3741 1.8848 26.5022 2.0118 26.5022 2.17055V17.6385C26.5022 18.8681 26.2694 19.5146 25.6701 19.9389C25.1202 20.3228 24.483 20.4383 23.5112 20.4613C23.3687 20.4642 23.2465 20.369 23.2203 20.2304C23.1243 19.7109 22.9439 19.1019 22.7286 18.5506C22.6559 18.363 22.7926 18.1609 22.9963 18.1609H23.36C23.6131 18.1609 23.9157 18.057 23.9157 17.5606V4.34397C23.9157 4.18522 23.7876 4.05822 23.6276 4.05822H21.7743C21.6143 4.05822 21.4863 4.18522 21.4863 4.34397V23.7171C21.4863 23.8759 21.3582 24.0029 21.1982 24.0029H19.1849C19.0249 24.0029 18.8969 23.8759 18.8969 23.7171V1.67698C18.8969 1.47205 19.1063 1.33351 19.2954 1.41432C19.7901 1.62791 20.5116 1.82707 21.5241 1.87037C21.5765 1.87325 21.6288 1.87614 21.6725 1.87903H26.2141V1.8848Z" fill="#EA5514"/>
<path d="M5.0479 5.87373L6.95069 6.53182C7.12816 6.59243 7.2009 6.80314 7.09616 6.959C6.56373 7.75275 6.01966 8.52918 5.40286 9.27963L5.33885 9.35756V23.7143C5.33885 23.873 5.21083 24 5.05081 24H2.97928C2.81926 24 2.69125 23.873 2.69125 23.7143V12.9135C2.69125 12.6855 2.43231 12.5499 2.24319 12.6769C1.67876 13.0579 0.980489 13.2657 0.33459 13.3754C0.0523731 13.4244 -0.113466 13.0781 0.0931055 12.8847C1.70785 11.3607 3.00838 9.02563 4.02087 7.20434C4.25944 6.77427 4.48929 6.36153 4.70459 5.99785C4.77442 5.87951 4.91698 5.82755 5.0479 5.87373Z" fill="#EA5514"/>
<path d="M6.30474 0.704311C6.48513 0.764924 6.55787 0.975628 6.45313 1.13149C6.40076 1.20654 6.34839 1.28447 6.29602 1.3624C5.04204 3.22698 3.53494 5.4639 1.18701 6.35867C0.916436 6.46258 0.677861 6.14219 0.858247 5.91706C2.28097 4.14195 3.30219 1.96276 4.01791 0.225177C4.0761 0.0866322 4.2303 0.0144734 4.37578 0.0635414L6.30474 0.707197V0.704311Z" fill="#EA5514"/>
<path d="M14.5939 10.9912V13.1618C14.5939 13.3205 14.7219 13.4475 14.8819 13.4475H15.8217C16.2668 13.4475 16.6829 13.3378 17.0262 13.1271C17.0611 13.1069 17.096 13.0838 17.128 13.0608V14.7435C17.128 14.9022 17 15.0292 16.84 15.0292H14.8819C14.7219 15.0292 14.5939 15.1562 14.5939 15.315V19.4887C14.5939 19.6561 14.7393 19.7888 14.911 19.7715L17.1804 19.5493C17.3491 19.532 17.4946 19.6647 17.4946 19.8321C17.4946 20.2362 17.515 20.6721 17.547 21.0473C17.5615 21.2003 17.448 21.3359 17.2909 21.3532C10.9629 22.0777 8.97862 22.3721 8.00686 22.6405C7.85848 22.681 7.70719 22.6001 7.65773 22.4558C7.57335 22.1989 7.4657 21.919 7.3406 21.6419C7.33769 21.6332 7.33187 21.6246 7.32896 21.6188L6.95946 20.9463C7.04383 20.7586 7.06129 20.7211 7.14566 20.5335C7.32605 20.4931 7.48898 20.4094 7.62863 20.2853C7.84975 20.0832 7.97195 19.8062 7.97195 19.4887V12.8876C7.97195 12.7288 8.09996 12.6018 8.25998 12.6018H9.82527C9.98529 12.6018 10.1133 12.7288 10.1133 12.8876V19.9418C10.1133 20.1092 10.2588 20.242 10.4275 20.2247L11.8299 20.0919C11.9783 20.0775 12.0888 19.9562 12.0888 19.809V10.9999C12.0888 10.8412 11.9608 10.7142 11.8008 10.7142H8.25707C8.09705 10.7142 7.96904 10.5872 7.96904 10.4284V8.356C7.96904 8.15396 8.17852 8.01253 8.36472 8.09335C8.45783 8.13375 8.55675 8.17128 8.6644 8.2088C9.14446 8.37621 9.67107 8.45991 10.2297 8.45991H11.7979C11.9579 8.45991 12.0859 8.33291 12.0859 8.17416V4.2978C12.0859 4.13905 11.9579 4.01205 11.7979 4.01205H9.96783L9.86891 4.1708C9.2812 5.11463 8.30363 6.01517 7.54717 5.7554C7.34932 5.68902 7.17185 5.62552 7.01474 5.56779C6.83726 5.5014 6.77034 5.28493 6.88381 5.13195C7.8643 3.82732 8.70222 2.06376 9.22301 0.216497C9.26375 0.072179 9.40631 -0.0172978 9.55469 0.0115657L11.44 0.386791C11.6088 0.421427 11.7106 0.591722 11.6582 0.753358C11.5011 1.22672 11.3295 1.70874 11.1433 2.18787C11.0705 2.37549 11.2102 2.57753 11.4109 2.57753H17.224C17.384 2.57753 17.512 2.70453 17.512 2.86328V3.72918C17.512 3.88793 17.384 4.01493 17.224 4.01493H14.8732C14.7132 4.01493 14.5851 4.14193 14.5851 4.30068V8.17705C14.5851 8.3358 14.7132 8.4628 14.8732 8.4628H17.3404C17.5004 8.4628 17.6284 8.5898 17.6284 8.74855V10.4313C17.6284 10.59 17.5004 10.717 17.3404 10.717H14.8732C14.7132 10.717 14.5851 10.844 14.5851 11.0028L14.5939 10.9912Z" fill="#EA5514"/>
<path d="M85.5466 1.08526C85.759 1.08526 85.9335 1.25556 85.9335 1.46915V2.43896C85.9335 2.72759 85.6484 2.96139 85.2935 2.96139H71.1913C70.8393 2.96139 70.5513 2.72471 70.5513 2.43896V1.05062C70.5513 0.787967 70.816 0.597468 71.0633 0.689831C71.5521 0.868784 72.2097 1.01887 73.0767 1.05928C73.1669 1.06506 73.2454 1.06794 73.3153 1.07949C73.3502 1.07949 73.3851 1.08526 73.4229 1.08815H85.5495L85.5466 1.08526Z" fill="#EA5514"/>
<path d="M75.6108 4.66144C75.6108 4.66144 75.5934 4.66144 75.5846 4.66144L75.5003 4.65567C74.6361 4.61526 73.9757 4.46517 73.4869 4.28622C73.2367 4.19674 72.9749 4.38435 72.9749 4.64701V8.83222C72.9749 9.75296 73.8419 10.5005 74.9096 10.5005H81.2406C82.3084 10.5005 83.1754 9.75296 83.1754 8.83222V5.04533C83.1754 4.83462 83.0037 4.66144 82.7884 4.66144H75.6079H75.6108ZM80.6558 8.52915C80.6558 8.73985 80.4841 8.91015 80.2718 8.91015H76.1112C75.6894 8.91015 75.3431 8.56667 75.3431 8.14815V7.01093C75.3431 6.59241 75.6894 6.24893 76.1112 6.24893H80.2718C80.4841 6.24893 80.6558 6.41923 80.6558 6.62993V8.53204V8.52915Z" fill="#EA5514"/>
<path d="M70.3361 14.5761C70.0538 14.934 69.5563 15.5228 69.2392 15.8951C69.085 16.077 68.8057 16.0741 68.6515 15.8951C68.1336 15.2948 67.4993 14.6107 66.9553 14.0305C66.8505 13.9151 66.6818 13.8776 66.5363 13.9353C66.3879 13.993 66.2919 14.1344 66.2919 14.2903V23.3996C66.2919 23.6103 66.1203 23.7835 65.905 23.7835H63.9527C63.7403 23.7835 63.5658 23.6132 63.5658 23.3996V15.4189C63.5658 15.2746 63.4814 15.1418 63.3475 15.0754C63.2137 15.0119 63.0566 15.0292 62.9431 15.1187C62.4834 15.4795 61.9685 15.7277 61.4622 15.898C61.0665 16.0308 60.7698 15.543 61.0724 15.2572C63.4552 13.0145 65.5616 9.72699 66.4607 7.68634C66.5101 7.568 66.4985 7.43234 66.4287 7.32555C66.3588 7.21875 66.2366 7.15525 66.1057 7.15525H60.3654C60.153 7.15525 59.9784 6.98496 59.9784 6.77137V4.58351C59.9784 4.58351 59.9784 4.55754 59.9784 4.54599V4.29199C60.4788 4.55176 61.2876 4.83174 62.5067 4.88369C62.6376 4.88947 62.7424 4.90101 62.8238 4.91544C62.8733 4.91833 62.9228 4.92122 62.9693 4.92699H67.5721C67.6215 4.9241 67.6797 4.91833 67.7583 4.91833C68.5002 4.88947 69.0879 4.79133 69.5447 4.67299C69.8269 4.59795 70.0829 4.85483 70.0131 5.13769C69.6552 6.56355 68.8551 8.86108 67.1153 11.072C67.0513 11.1528 67.0222 11.2568 67.0367 11.3607C67.0513 11.4617 67.1066 11.554 67.1909 11.6147C67.607 11.9148 69.5767 13.4186 70.2924 14.0594C70.4437 14.1951 70.4612 14.4202 70.3361 14.5789V14.5761Z" fill="#EA5514"/>
<path d="M69.0791 1.56442C69.0791 2.09551 68.6456 2.52269 68.1132 2.52269H60.5224C60.2024 2.52269 59.9405 2.26292 59.9376 1.94542V1.1459C59.9376 0.883243 60.2024 0.692743 60.4497 0.785107C60.9385 0.96406 61.596 1.11704 62.463 1.15456C62.5009 1.15456 62.5329 1.15745 62.5678 1.16033C62.7045 1.17188 62.8674 1.18054 63.0333 1.18054H68.6922C68.9046 1.18054 69.0791 1.35083 69.0791 1.56442Z" fill="#EA5514"/>
<path d="M84.9765 18.3976C84.7437 14.856 81.7703 12.0245 78.1945 11.9293C74.2435 11.8225 71.0082 14.9657 71.0082 18.8623C71.0082 19.8321 71.2089 20.7557 71.5726 21.5986C72.1487 22.9263 73.4899 23.7662 74.9476 23.7662H81.0516C82.5267 23.7662 83.8738 22.9032 84.4469 21.5553C84.8543 20.5941 85.0521 19.5233 84.9765 18.4005V18.3976ZM82.1281 20.2189C81.7615 21.0819 80.8974 21.6361 79.9547 21.6361H76.0444C75.1105 21.6361 74.2522 21.0963 73.8827 20.2477C73.65 19.7109 73.5219 19.1192 73.5219 18.4986C73.5219 16.0019 75.5935 13.9901 78.1247 14.0565C80.4173 14.1171 82.3201 15.9298 82.4685 18.1984C82.5151 18.92 82.39 19.6041 82.1281 20.2189Z" fill="#EA5514"/>
<path d="M80.4581 18.0426C80.4843 18.438 80.4144 18.8161 80.2719 19.1538C80.0711 19.6301 79.594 19.9331 79.0761 19.9331H76.9231C76.4081 19.9331 75.9368 19.6358 75.7331 19.1682C75.6051 18.8738 75.5353 18.5477 75.5353 18.2042C75.5353 16.8303 76.6758 15.7248 78.0694 15.7595C79.3292 15.7941 80.3766 16.7899 80.461 18.0397L80.4581 18.0426Z" fill="#F8B73D"/>
</g>
<defs>
<clipPath id="clip0_1485_680">
<rect width="140" height="24" fill="white"/>
</clipPath>
</defs>
</svg>
