<svg width="28" height="24" viewBox="0 0 28 24" fill="none" xmlns="http://www.w3.org/2000/svg">
<path d="M27.9689 13.0609C27.5017 5.91072 21.5514 0.199573 14.39 0.00521437C6.47737 -0.207833 0 6.13499 0 13.999C0 15.9576 0.403664 17.8227 1.12877 19.5196C2.27997 22.1995 4.96736 23.8926 7.88648 23.8926H20.1086C23.0614 23.8926 25.76 22.1509 26.9074 19.4299C27.7223 17.49 28.1185 15.3296 27.9689 13.0609ZM22.2653 16.7387C21.5327 18.4805 19.8021 19.5981 17.9109 19.5981H10.0842C8.21538 19.5981 6.49606 18.5104 5.756 16.7948C5.29253 15.7109 5.03464 14.5148 5.03464 13.2627C5.03464 8.22434 9.18344 4.16523 14.248 4.29979C18.8378 4.42313 22.6465 8.08231 22.9455 12.6609C23.039 14.1149 22.7885 15.4978 22.2653 16.7387Z" fill="#EA5514"/>
<path d="M18.9238 12.3395C18.9761 13.1393 18.8378 13.9018 18.55 14.5858C18.1464 15.5464 17.197 16.1594 16.1542 16.1594H11.8447C10.8168 16.1594 9.86744 15.5613 9.46378 14.6157C9.20588 14.0177 9.06384 13.3599 9.06384 12.6721C9.06384 9.90252 11.3476 7.66365 14.1359 7.74215C16.6625 7.80942 18.7593 9.82402 18.9238 12.3432V12.3395Z" fill="#F8B73D"/>
</svg>
