<svg width="24" height="24" viewBox="0 0 24 24" fill="none" xmlns="http://www.w3.org/2000/svg">
<path d="M16.365 22.5H7.63502C6.64776 22.5367 5.68592 22.1823 4.95847 21.5138C4.23103 20.8454 3.79676 19.9168 3.75002 18.93V14.25C3.75002 14.0511 3.82903 13.8603 3.96969 13.7197C4.11034 13.579 4.3011 13.5 4.50002 13.5C4.69893 13.5 4.88969 13.579 5.03035 13.7197C5.171 13.8603 5.25002 14.0511 5.25002 14.25V18.93C5.29611 19.5191 5.57209 20.0664 6.01835 20.4537C6.4646 20.841 7.0453 21.0373 7.63502 21H16.365C16.9547 21.0373 17.5354 20.841 17.9817 20.4537C18.4279 20.0664 18.7039 19.5191 18.75 18.93V14.25C18.75 14.0511 18.829 13.8603 18.9697 13.7197C19.1103 13.579 19.3011 13.5 19.5 13.5C19.6989 13.5 19.8897 13.579 20.0303 13.7197C20.171 13.8603 20.25 14.0511 20.25 14.25V18.93C20.2033 19.9168 19.769 20.8454 19.0416 21.5138C18.3141 22.1823 17.3523 22.5367 16.365 22.5ZM22.2825 12.5325C22.3528 12.4628 22.4086 12.3798 22.4467 12.2884C22.4848 12.1971 22.5044 12.099 22.5044 12C22.5044 11.901 22.4848 11.803 22.4467 11.7116C22.4086 11.6202 22.3528 11.5372 22.2825 11.4675L12.5325 1.71752C12.4628 1.64722 12.3798 1.59142 12.2884 1.55335C12.1971 1.51527 12.099 1.49567 12 1.49567C11.901 1.49567 11.803 1.51527 11.7116 1.55335C11.6202 1.59142 11.5372 1.64722 11.4675 1.71752L1.71752 11.4675C1.57629 11.6087 1.49695 11.8003 1.49695 12C1.49695 12.1997 1.57629 12.3913 1.71752 12.5325C1.85874 12.6737 2.05029 12.7531 2.25002 12.7531C2.44974 12.7531 2.64129 12.6737 2.78252 12.5325L12 3.30752L21.2175 12.5325C21.2872 12.6028 21.3702 12.6586 21.4616 12.6967C21.553 12.7348 21.651 12.7544 21.75 12.7544C21.849 12.7544 21.9471 12.7348 22.0384 12.6967C22.1298 12.6586 22.2128 12.6028 22.2825 12.5325Z" fill="white"/>
</svg>
