<svg width="32" height="31" viewBox="0 0 32 31" fill="none" xmlns="http://www.w3.org/2000/svg">
<path d="M13.8203 24.2148H27.4961C27.9531 24.2148 28.3516 23.8398 28.3516 23.3359C28.3516 22.832 27.9531 22.457 27.4961 22.457H14.0195C13.3516 22.457 12.9414 21.9883 12.8359 21.2734L12.6484 20.043H27.5195C29.2305 20.043 30.1094 18.9883 30.3555 17.3125L31.293 11.1133C31.3164 10.9609 31.3398 10.7734 31.3398 10.668C31.3398 10.1055 30.918 9.71875 30.2734 9.71875H11.1367L10.9141 8.23047C10.7969 7.32812 10.4688 6.87109 9.27344 6.87109H5.16016C4.69141 6.87109 4.29297 7.28125 4.29297 7.75C4.29297 8.23047 4.69141 8.64062 5.16016 8.64062H9.12109L10.9961 21.5078C11.2422 23.1719 12.1211 24.2148 13.8203 24.2148ZM29.3477 11.4883L28.5156 17.1016C28.4219 17.8281 28.0352 18.2734 27.3438 18.2734L12.3906 18.2852L11.3945 11.4883H29.3477ZM14.7461 29.9102C15.8008 29.9102 16.6445 29.0781 16.6445 28.0117C16.6445 26.957 15.8008 26.1133 14.7461 26.1133C13.6797 26.1133 12.8359 26.957 12.8359 28.0117C12.8359 29.0781 13.6797 29.9102 14.7461 29.9102ZM25.7031 29.9102C26.7695 29.9102 27.6133 29.0781 27.6133 28.0117C27.6133 26.957 26.7695 26.1133 25.7031 26.1133C24.6484 26.1133 23.793 26.957 23.793 28.0117C23.793 29.0781 24.6484 29.9102 25.7031 29.9102Z" fill="white"/>
</svg>
