<svg width="24" height="24" viewBox="0 0 24 24" fill="none" xmlns="http://www.w3.org/2000/svg">
<path d="M15.6094 22.3906C15.8672 22.6484 16.1953 22.7891 16.582 22.7891C17.3555 22.7891 17.9766 22.1797 17.9766 21.4062C17.9766 21.0195 17.8125 20.668 17.543 20.3984L9.33984 12.3828L17.543 4.39062C17.8125 4.12109 17.9766 3.75781 17.9766 3.38281C17.9766 2.60938 17.3555 2 16.582 2C16.1953 2 15.8672 2.14062 15.6094 2.39844L6.49219 11.3047C6.16406 11.6094 6.01172 11.9844 6 12.3945C6 12.8047 6.16406 13.1562 6.49219 13.4727L15.6094 22.3906Z" fill="#505050"/>
</svg>
